<?xml version="1.0" encoding="utf-8"?>
<!-- Generator: Adobe Illustrator 15.1.0, SVG Export Plug-In . SVG Version: 6.00 Build 0)  -->
<!DOCTYPE svg PUBLIC "-//W3C//DTD SVG 1.1//EN" "http://www.w3.org/Graphics/SVG/1.1/DTD/svg11.dtd">
<svg version="1.1" id="Layer_2" xmlns="http://www.w3.org/2000/svg" xmlns:xlink="http://www.w3.org/1999/xlink" x="0px" y="0px"
	 width="142px" height="42px" viewBox="0 0 142 42" enable-background="new 0 0 142 42" xml:space="preserve">
<g>
	<g>
		<path fill="#0F79BF" d="M82.295,19.246c-0.207,0.76-0.414,1.795-0.528,2.6H81.33c0.022-0.783,0.022-1.68,0-2.461l-0.185-9.037
			c-0.022-0.782-0.575-1.38-1.355-1.38h-3.243c-0.805,0-1.356,0.46-1.563,1.219l-2.598,8.991c-0.23,0.781-0.46,1.748-0.645,2.668
			h-0.438c0.046-0.943,0.115-1.748,0.138-2.484l0.346-10.394H67.51l0.206,14.626c-0.022,0.69,0.645,1.241,1.403,1.241h3.862
			c0.735,0,1.333-0.392,1.54-1.104l2.668-9.475c0.185-0.689,0.346-1.47,0.482-2.207h0.438c-0.046,0.781-0.046,1.449-0.068,2.23
			v9.291c0.046,0.713,0.713,1.264,1.447,1.264h3.796c0.759,0,1.333-0.391,1.54-1.08l4.276-14.787h-4.276L82.295,19.246z
			 M90.417,12.233l-1.195,8.601c-0.322,2.414,0.896,4.07,3.541,4.07c2.346,0,5.22,0.021,7.358-0.23l0.092-3.127h-5.68
			c-0.76,0-1.035-0.301-0.921-1.014l0.322-2.391h6.002l0.367-2.943H94.35l0.253-1.885c0.092-0.805,0.414-1.058,1.241-1.058h5.703
			l0.506-3.082c-2.115-0.276-5.013-0.276-7.681-0.276C92.074,8.899,90.716,10.187,90.417,12.233z M102.562,17.912h6.761l0.367-2.529
			h-6.76L102.562,17.912z M121.051,18.303c-0.414,2.715-0.966,3.543-2.921,3.543c-1.885,0-2.23-0.76-1.839-3.381l1.601-11.319h3.776
			L117.2,0.844l-6.875,6.301h3.244l-1.578,11.158c-0.666,4.969,1.448,6.854,6.07,6.854c4.76,0,6.576-1.726,7.268-6.691l1.379-9.498
			h-4.322L121.051,18.303z M135.472,8.738c-2.828,0-4.162,0.023-6.14,0.229l-2.23,15.867h4.301l0.781-5.68
			c0.897,0.115,1.816,0.184,2.76,0.184c4.024,0,5.564-1.012,6.116-5.127C141.635,10.048,140.026,8.738,135.472,8.738z
			 M136.806,13.889c-0.275,2-0.713,2.299-2.207,2.299h-1.978l0.598-4.276l2.139-0.022C136.714,11.888,137.037,12.325,136.806,13.889
			z"/>
	</g>
</g>
<g enable-background="new    ">
	<path fill="#274561" d="M3.869,17.822c-2.554-1.174-3.082-2.736-2.829-4.784C1.478,9.521,3.501,8.67,7.548,8.67
		c1.725,0,3.725,0.184,5.45,0.736l-0.392,2.806c-1.379-0.023-3.426-0.069-5.266-0.069c-1.333,0-1.863,0.092-2.023,1.058
		c-0.114,0.667,0.093,0.919,1.126,1.357l2.736,1.194c2.576,1.127,3.104,2.483,2.829,4.83c-0.438,3.608-2.046,4.553-6.438,4.553
		c-1.241,0-3.519-0.139-5.863-0.713l0.414-3.034c2.781,0.067,4.599,0.114,5.242,0.114c1.702,0,2.23-0.207,2.393-1.104
		c0.115-0.689-0.138-0.896-0.943-1.24L3.869,17.822z"/>
	<path fill="#274561" d="M22.98,16.947c0.414,0.229,0.897,0.92,1.15,1.52l3.012,6.369h-4.69l-2.828-6.783h-0.989
		c0.046,0.527,0.046,1.08-0.023,1.563l-0.734,5.221H13.53L15.76,8.97h4.346l-0.644,4.507c-0.069,0.55-0.185,1.104-0.368,1.677h1.012
		l4.231-6.186h4.852l-4.668,6.576c-0.437,0.668-1.035,1.082-1.518,1.289L22.98,16.947z"/>
	<path fill="#274561" d="M37.953,16.947c0.414,0.229,0.896,0.92,1.149,1.52l3.013,6.369h-4.691l-2.828-6.783h-0.989
		c0.046,0.527,0.046,1.08-0.022,1.563l-0.735,5.221h-4.346L30.733,8.97h4.347l-0.645,4.507c-0.068,0.55-0.184,1.104-0.368,1.677
		h1.013l4.23-6.186h4.853l-4.668,6.576c-0.438,0.668-1.035,1.082-1.519,1.289L37.953,16.947z"/>
	<path fill="#274561" d="M57.571,18.467c-0.689,4.967-2.506,6.691-7.266,6.691c-4.622,0-6.738-1.887-6.071-6.854l1.333-9.337h4.323
		l-1.356,9.498c-0.392,2.621-0.047,3.38,1.84,3.38c1.955,0,2.506-0.828,2.92-3.541l1.333-9.337h4.323L57.571,18.467z"/>
</g>
<g enable-background="new    ">
	<path fill="#274561" d="M3.479,34.604c0,0.18,0.018,0.345,0.055,0.49c0.037,0.148,0.119,0.29,0.246,0.432
		c0.213,0.233,0.484,0.458,0.812,0.671c0.328,0.215,0.681,0.408,1.063,0.582l-0.501,0.933c-0.441-0.194-0.855-0.421-1.243-0.682
		c-0.388-0.261-0.729-0.553-1.022-0.873C2.62,36.484,2.279,36.799,1.865,37.1s-0.862,0.555-1.343,0.763L0,36.931
		c0.401-0.196,0.78-0.415,1.138-0.663c0.357-0.248,0.633-0.494,0.827-0.742c0.113-0.146,0.194-0.292,0.241-0.436
		c0.045-0.144,0.069-0.306,0.069-0.486v-1.614h1.204V34.604z M7.649,40.236c0,0.295-0.057,0.568-0.17,0.823
		c-0.115,0.254-0.276,0.477-0.487,0.672c-0.21,0.192-0.468,0.345-0.771,0.455c-0.304,0.111-0.646,0.167-1.027,0.167
		c-0.381,0-0.724-0.056-1.028-0.167c-0.305-0.11-0.562-0.263-0.772-0.455c-0.21-0.195-0.373-0.418-0.485-0.672
		c-0.114-0.255-0.171-0.528-0.171-0.823c0-0.286,0.057-0.559,0.171-0.816c0.113-0.258,0.275-0.482,0.485-0.677
		c0.21-0.193,0.467-0.346,0.772-0.456c0.304-0.11,0.647-0.165,1.028-0.165c0.381,0,0.723,0.055,1.027,0.165
		c0.304,0.11,0.562,0.263,0.771,0.456c0.21,0.195,0.373,0.419,0.487,0.677C7.593,39.679,7.649,39.95,7.649,40.236z M3.92,40.236
		c0,0.161,0.031,0.313,0.09,0.458c0.06,0.143,0.146,0.267,0.261,0.37c0.113,0.104,0.247,0.185,0.4,0.247
		C4.826,41.371,5,41.4,5.193,41.4c0.187,0,0.359-0.029,0.517-0.089c0.157-0.063,0.292-0.143,0.406-0.247
		c0.113-0.104,0.201-0.228,0.26-0.37c0.061-0.145,0.091-0.297,0.091-0.458c0-0.159-0.03-0.312-0.091-0.456
		c-0.06-0.145-0.147-0.267-0.26-0.37c-0.114-0.104-0.249-0.186-0.406-0.246c-0.158-0.062-0.33-0.09-0.517-0.09
		c-0.193,0-0.367,0.028-0.521,0.09c-0.153,0.061-0.287,0.143-0.4,0.246c-0.114,0.104-0.201,0.226-0.261,0.37
		C3.95,39.925,3.92,40.077,3.92,40.236z M4.812,34.354h1.754V32.81h1.183v5.252H6.566v-2.755H4.812V34.354z"/>
	<path fill="#274561" d="M16.309,34.945c0,0.234-0.007,0.484-0.02,0.752c-0.013,0.268-0.037,0.528-0.07,0.78h1.052v0.953h-2.186
		v2.308h-1.183v-2.308h-1.083v2.308h-1.182v-2.308H9.152v-0.953h5.904c0.021-0.232,0.037-0.466,0.05-0.699
		c0.013-0.234,0.02-0.445,0.02-0.633v-1.133h-3.82c-0.214,0-0.447-0.022-0.701-0.069c-0.254-0.047-0.479-0.114-0.672-0.2l0.17-0.782
		c0.181,0.033,0.383,0.06,0.607,0.075c0.224,0.017,0.426,0.025,0.606,0.025h4.992V34.945L16.309,34.945z M16.57,41.86
		c-0.18,0.027-0.401,0.05-0.661,0.065c-0.261,0.017-0.54,0.032-0.837,0.046c-0.298,0.014-0.604,0.022-0.918,0.029
		s-0.611,0.011-0.892,0.011c-0.294,0-0.587-0.004-0.882-0.011c-0.295-0.007-0.58-0.013-0.857-0.024
		c-0.278-0.01-0.542-0.023-0.792-0.04c-0.25-0.017-0.476-0.039-0.676-0.066v-2.936h1.203v2.055c0.134,0.013,0.294,0.025,0.481,0.035
		c0.187,0.01,0.386,0.018,0.597,0.021c0.21,0.002,0.429,0.006,0.656,0.01c0.227,0.002,0.451,0.005,0.672,0.005
		c0.24,0,0.489-0.003,0.746-0.005c0.258-0.004,0.514-0.01,0.768-0.021c0.253-0.01,0.5-0.02,0.737-0.029
		c0.237-0.011,0.456-0.026,0.656-0.046V41.86z"/>
	<path fill="#274561" d="M18.104,37.38h1.814v-2.195h1.183v2.195h3.007v0.954h-6.004V37.38z M18.676,32.989
		c0.18,0.034,0.381,0.06,0.606,0.076c0.224,0.016,0.425,0.025,0.606,0.025h3.658v1.613c0,0.134-0.005,0.283-0.014,0.451
		c-0.01,0.166-0.022,0.338-0.036,0.51c-0.014,0.175-0.03,0.345-0.05,0.512c-0.019,0.167-0.043,0.317-0.07,0.451l-1.143-0.131
		c0.04-0.254,0.072-0.531,0.095-0.832c0.023-0.3,0.036-0.557,0.036-0.771v-0.853h-2.486c-0.214,0-0.448-0.022-0.702-0.069
		c-0.254-0.047-0.478-0.114-0.672-0.2L18.676,32.989z M25.892,41.852c-0.179,0.026-0.4,0.05-0.661,0.068
		c-0.26,0.021-0.54,0.038-0.837,0.051c-0.298,0.013-0.596,0.022-0.898,0.03c-0.3,0.007-0.581,0.011-0.842,0.011
		c-0.274,0-0.558-0.004-0.852-0.011c-0.294-0.008-0.586-0.016-0.877-0.03c-0.291-0.013-0.566-0.028-0.827-0.045
		c-0.261-0.016-0.491-0.038-0.691-0.065v-2.706h1.203v1.823c0.12,0.014,0.275,0.026,0.466,0.037c0.19,0.01,0.395,0.018,0.612,0.024
		c0.217,0.007,0.44,0.012,0.671,0.015c0.231,0.003,0.45,0.005,0.657,0.005c0.22,0,0.462-0.004,0.727-0.01
		c0.264-0.007,0.526-0.016,0.787-0.025c0.261-0.011,0.509-0.022,0.747-0.035c0.237-0.014,0.442-0.026,0.616-0.039V41.852
		L25.892,41.852z M25.592,35.176h1.142v0.962h-1.142v3.438h-1.183V32.81h1.183V35.176z"/>
	<path fill="#274561" d="M27.005,33.011c0.146,0.033,0.307,0.059,0.481,0.075c0.174,0.016,0.352,0.024,0.532,0.024h3.058v0.952
		H28.82v4.141c0.154,0.02,0.35,0.035,0.587,0.045c0.237,0.01,0.459,0.015,0.666,0.015c0.248,0,0.495-0.01,0.743-0.03
		c0.248-0.02,0.468-0.043,0.662-0.07v0.903c-0.233,0.052-0.518,0.092-0.852,0.114c-0.333,0.024-0.682,0.036-1.042,0.036
		c-0.368,0-0.726-0.013-1.073-0.04c-0.348-0.026-0.637-0.061-0.872-0.1v-5.044c-0.147-0.021-0.287-0.052-0.421-0.095
		c-0.134-0.044-0.26-0.092-0.381-0.146L27.005,33.011z M32.99,35.506h0.853V32.81h1.162v8.671h-1.162v-5.021H32.99v4.93h-1.153
		V32.84h1.153V35.506z"/>
	<path fill="#274561" d="M39.344,35.627c0-0.382,0.062-0.729,0.186-1.044c0.123-0.313,0.299-0.585,0.526-0.812
		c0.227-0.227,0.503-0.403,0.827-0.526c0.324-0.123,0.687-0.185,1.087-0.185c0.401,0,0.764,0.063,1.088,0.189
		c0.324,0.127,0.6,0.305,0.827,0.531h1.774V32.81h1.183v8.671h-1.182v-4.02h-1.764c-0.228,0.233-0.504,0.415-0.827,0.54
		c-0.325,0.128-0.69,0.191-1.098,0.191c-0.401,0-0.763-0.062-1.087-0.186s-0.6-0.3-0.827-0.527
		c-0.227-0.226-0.403-0.496-0.526-0.812C39.406,36.354,39.344,36.007,39.344,35.627z M40.527,35.627c0,0.233,0.033,0.448,0.1,0.646
		s0.164,0.369,0.291,0.512c0.127,0.144,0.278,0.255,0.456,0.335c0.177,0.081,0.377,0.121,0.596,0.121c0.22,0,0.42-0.04,0.597-0.121
		c0.176-0.08,0.328-0.192,0.456-0.335s0.224-0.314,0.291-0.512c0.066-0.197,0.1-0.412,0.1-0.646c0-0.234-0.034-0.449-0.1-0.646
		c-0.067-0.198-0.164-0.368-0.291-0.512c-0.127-0.144-0.278-0.255-0.456-0.336c-0.178-0.08-0.377-0.12-0.597-0.12
		c-0.219,0-0.419,0.04-0.596,0.12c-0.177,0.081-0.329,0.192-0.456,0.336c-0.127,0.144-0.224,0.313-0.291,0.512
		C40.56,35.178,40.527,35.393,40.527,35.627z M44.596,35.627c0,0.16-0.012,0.313-0.036,0.461c-0.023,0.147-0.055,0.286-0.095,0.421
		h1.194v-1.775h-1.205C44.551,35.016,44.596,35.313,44.596,35.627z"/>
	<path fill="#274561" d="M51.594,34.604c0,0.18,0.018,0.345,0.055,0.49c0.037,0.148,0.118,0.29,0.246,0.432
		c0.214,0.233,0.484,0.458,0.812,0.671c0.328,0.215,0.682,0.408,1.063,0.582l-0.502,0.933c-0.44-0.194-0.855-0.421-1.243-0.682
		s-0.729-0.553-1.022-0.873c-0.267,0.327-0.608,0.642-1.022,0.942c-0.414,0.301-0.862,0.555-1.343,0.763l-0.521-0.932
		c0.4-0.196,0.779-0.415,1.137-0.663c0.357-0.248,0.633-0.494,0.827-0.742c0.114-0.146,0.194-0.292,0.241-0.436
		s0.07-0.306,0.07-0.486v-1.614h1.203L51.594,34.604L51.594,34.604z M55.763,40.236c0,0.295-0.056,0.568-0.169,0.823
		c-0.114,0.254-0.276,0.477-0.486,0.672c-0.21,0.192-0.468,0.345-0.771,0.455c-0.305,0.111-0.647,0.167-1.028,0.167
		c-0.38,0-0.723-0.056-1.027-0.167c-0.304-0.11-0.562-0.263-0.771-0.455c-0.211-0.195-0.374-0.418-0.486-0.672
		c-0.114-0.255-0.17-0.528-0.17-0.823c0-0.286,0.057-0.559,0.17-0.816c0.114-0.258,0.275-0.482,0.486-0.677
		c0.21-0.193,0.467-0.346,0.771-0.456s0.646-0.165,1.027-0.165s0.723,0.055,1.028,0.165c0.303,0.11,0.562,0.263,0.771,0.456
		c0.21,0.195,0.373,0.419,0.486,0.677C55.708,39.679,55.763,39.95,55.763,40.236z M52.035,40.236c0,0.161,0.029,0.313,0.09,0.458
		c0.06,0.143,0.147,0.267,0.26,0.37c0.114,0.104,0.248,0.185,0.401,0.247c0.154,0.06,0.328,0.089,0.521,0.089
		c0.188,0,0.359-0.029,0.516-0.089c0.157-0.063,0.293-0.143,0.406-0.247c0.113-0.104,0.199-0.228,0.261-0.37
		c0.06-0.145,0.09-0.297,0.09-0.458c0-0.159-0.03-0.312-0.09-0.456c-0.062-0.145-0.147-0.267-0.261-0.37
		c-0.114-0.104-0.25-0.186-0.406-0.246c-0.157-0.062-0.329-0.09-0.516-0.09c-0.193,0-0.367,0.028-0.521,0.09
		c-0.153,0.061-0.287,0.143-0.401,0.246c-0.113,0.104-0.201,0.226-0.26,0.37C52.065,39.925,52.035,40.077,52.035,40.236z
		 M52.927,34.354h1.754V32.81h1.183v5.252h-1.183v-2.755h-1.754V34.354z"/>
	<path fill="#274561" d="M61.387,35.085v1.714h4v0.951h-8.12v-0.951h2.938v-1.714H61.387z M58.169,32.931
		c0.181,0.033,0.382,0.059,0.607,0.074c0.224,0.018,0.426,0.025,0.606,0.025h5.052v1.493c0,0.115-0.001,0.246-0.005,0.396
		s-0.01,0.309-0.02,0.47c-0.01,0.165-0.021,0.328-0.036,0.487c-0.013,0.161-0.03,0.308-0.05,0.441l-1.142-0.092
		c0.02-0.252,0.037-0.516,0.049-0.786c0.014-0.271,0.021-0.514,0.021-0.728v-0.731h-3.879c-0.215,0-0.449-0.022-0.701-0.07
		c-0.255-0.046-0.479-0.112-0.672-0.199L58.169,32.931z M59.061,40.328c0-0.288,0.054-0.555,0.16-0.803
		c0.108-0.247,0.26-0.46,0.457-0.641c0.197-0.181,0.435-0.323,0.713-0.427c0.276-0.104,0.588-0.155,0.938-0.155
		c0.346,0,0.659,0.051,0.936,0.155c0.277,0.104,0.515,0.246,0.712,0.427c0.196,0.181,0.349,0.395,0.456,0.641
		c0.107,0.248,0.161,0.515,0.161,0.803c0,0.294-0.054,0.564-0.161,0.811c-0.107,0.248-0.259,0.462-0.456,0.644
		c-0.197,0.18-0.434,0.32-0.712,0.42c-0.277,0.101-0.59,0.15-0.936,0.15c-0.349,0-0.662-0.05-0.938-0.15
		c-0.278-0.1-0.515-0.24-0.713-0.42c-0.196-0.182-0.349-0.396-0.457-0.644C59.115,40.893,59.061,40.622,59.061,40.328z
		 M60.244,40.328c0,0.313,0.099,0.571,0.295,0.772c0.197,0.199,0.459,0.299,0.789,0.299c0.326,0,0.588-0.1,0.786-0.299
		c0.197-0.201,0.296-0.46,0.296-0.772c0-0.314-0.098-0.571-0.296-0.772c-0.197-0.199-0.46-0.301-0.786-0.301
		c-0.329,0-0.591,0.102-0.789,0.301C60.343,39.757,60.244,40.014,60.244,40.328z"/>
	<path fill="#274561" d="M66.139,33.391c0.18,0.034,0.381,0.059,0.606,0.076c0.223,0.017,0.425,0.024,0.606,0.024h0.992v-1.173
		h1.184v1.174h2.194v0.952h-4.38c-0.214,0-0.448-0.022-0.702-0.07c-0.253-0.047-0.478-0.113-0.671-0.201L66.139,33.391z
		 M71.19,36.498c0,0.254-0.048,0.492-0.145,0.712c-0.097,0.221-0.241,0.411-0.431,0.571c-0.189,0.161-0.426,0.287-0.707,0.376
		c-0.28,0.092-0.605,0.136-0.973,0.136c-0.367,0-0.692-0.044-0.972-0.136c-0.281-0.089-0.516-0.215-0.707-0.376
		c-0.191-0.16-0.334-0.352-0.431-0.571c-0.098-0.219-0.146-0.457-0.146-0.712c0-0.253,0.048-0.491,0.146-0.711
		c0.097-0.221,0.24-0.411,0.431-0.571c0.191-0.161,0.426-0.286,0.707-0.376c0.279-0.091,0.604-0.135,0.972-0.135
		c0.368,0,0.691,0.044,0.973,0.135c0.28,0.09,0.517,0.215,0.707,0.376c0.191,0.16,0.334,0.352,0.431,0.571
		C71.142,36.007,71.19,36.245,71.19,36.498z M73.556,38.894v3.199h-1.183v-2.246h-4.993v-0.953H73.556z M70.008,36.498
		c0-0.234-0.091-0.432-0.271-0.596c-0.182-0.165-0.448-0.247-0.803-0.247c-0.354,0-0.621,0.082-0.801,0.247
		c-0.181,0.164-0.271,0.361-0.271,0.596s0.09,0.434,0.271,0.597c0.18,0.164,0.447,0.246,0.801,0.246
		c0.354,0,0.621-0.082,0.803-0.246C69.917,36.932,70.008,36.732,70.008,36.498z M73.556,35.285h1.292v0.952h-1.292v2.156h-1.183
		V32.81h1.183V35.285z"/>
	<path fill="#274561" d="M78.047,37.872c-0.395,0-0.747-0.061-1.057-0.182c-0.311-0.119-0.577-0.288-0.797-0.505
		c-0.221-0.218-0.39-0.479-0.506-0.787c-0.118-0.308-0.175-0.648-0.175-1.022c0-0.375,0.059-0.716,0.175-1.022
		c0.117-0.308,0.286-0.57,0.506-0.788c0.221-0.217,0.486-0.386,0.797-0.505c0.311-0.121,0.663-0.181,1.057-0.181
		c0.387,0,0.738,0.06,1.052,0.181c0.314,0.119,0.582,0.288,0.801,0.505c0.222,0.218,0.39,0.48,0.507,0.788
		c0.118,0.307,0.176,0.647,0.176,1.022c0,0.374-0.059,0.715-0.176,1.022c-0.117,0.308-0.285,0.569-0.507,0.787
		c-0.22,0.217-0.487,0.386-0.801,0.505C78.784,37.812,78.434,37.872,78.047,37.872z M78.047,36.92c0.207,0,0.396-0.04,0.567-0.117
		c0.169-0.075,0.312-0.184,0.425-0.32c0.114-0.138,0.202-0.299,0.266-0.486c0.064-0.187,0.095-0.394,0.095-0.62
		c0-0.228-0.032-0.435-0.095-0.622c-0.063-0.188-0.152-0.35-0.266-0.486s-0.255-0.244-0.425-0.32
		c-0.171-0.077-0.36-0.116-0.567-0.116c-0.214,0-0.405,0.039-0.572,0.116c-0.167,0.076-0.307,0.184-0.42,0.32
		c-0.114,0.138-0.203,0.301-0.266,0.486c-0.064,0.188-0.095,0.393-0.095,0.622c0,0.228,0.032,0.434,0.095,0.62
		c0.063,0.188,0.151,0.35,0.266,0.486c0.113,0.137,0.253,0.245,0.42,0.32C77.642,36.881,77.833,36.92,78.047,36.92z M83.229,41.852
		c-0.181,0.026-0.399,0.05-0.657,0.068c-0.257,0.021-0.53,0.038-0.817,0.051s-0.58,0.022-0.876,0.03
		c-0.298,0.007-0.577,0.011-0.838,0.011c-0.274,0-0.556-0.004-0.847-0.011c-0.291-0.008-0.576-0.016-0.857-0.03
		c-0.28-0.013-0.55-0.028-0.807-0.045c-0.258-0.016-0.486-0.038-0.687-0.065v-3.027h1.203v2.145c0.12,0.014,0.272,0.026,0.457,0.037
		c0.184,0.01,0.38,0.018,0.591,0.024s0.43,0.012,0.657,0.015s0.444,0.005,0.651,0.005c0.221,0,0.459-0.004,0.717-0.01
		c0.257-0.007,0.512-0.016,0.767-0.025c0.254-0.011,0.498-0.022,0.731-0.035c0.234-0.014,0.438-0.026,0.613-0.039L83.229,41.852
		L83.229,41.852z M82.928,39.286h-1.182V32.81h1.182V39.286z"/>
	<path fill="#274561" d="M84.442,33.011c0.181,0.033,0.383,0.059,0.607,0.075c0.224,0.016,0.426,0.024,0.606,0.024h2.988v0.952
		h-1.434v1.505c0,0.193,0.022,0.375,0.065,0.545c0.042,0.17,0.108,0.344,0.195,0.517c0.167,0.341,0.382,0.696,0.646,1.066
		c0.264,0.373,0.57,0.748,0.917,1.128l-0.771,0.742c-0.341-0.347-0.647-0.715-0.922-1.102c-0.274-0.388-0.515-0.782-0.722-1.185
		c-0.208,0.423-0.447,0.83-0.717,1.224c-0.27,0.395-0.589,0.783-0.957,1.163l-0.842-0.752c0.38-0.401,0.706-0.79,0.977-1.169
		c0.272-0.376,0.483-0.736,0.638-1.076c0.079-0.174,0.148-0.352,0.205-0.537c0.057-0.184,0.084-0.372,0.084-0.564v-1.505h-0.361
		c-0.213,0-0.448-0.022-0.701-0.07c-0.254-0.046-0.479-0.112-0.671-0.199L84.442,33.011z M91.078,36.488h-0.801v4.901h-1.153v-8.55
		h1.153v2.696h0.801V32.81h1.164v8.671h-1.164V36.488z"/>
	<path fill="#274561" d="M93.383,35.146c0-0.341,0.059-0.653,0.175-0.938c0.117-0.284,0.284-0.528,0.501-0.731
		c0.218-0.204,0.48-0.363,0.787-0.478c0.308-0.113,0.652-0.17,1.032-0.17c0.381,0,0.726,0.058,1.032,0.17
		c0.307,0.114,0.569,0.273,0.787,0.478c0.217,0.203,0.384,0.447,0.501,0.731c0.117,0.284,0.175,0.596,0.175,0.938
		c0,0.341-0.059,0.652-0.175,0.938c-0.118,0.284-0.284,0.527-0.501,0.731c-0.218,0.203-0.48,0.362-0.787,0.477
		s-0.651,0.17-1.032,0.17c-0.38,0-0.724-0.057-1.032-0.17c-0.307-0.114-0.569-0.273-0.787-0.477
		c-0.217-0.204-0.384-0.447-0.501-0.731C93.442,35.798,93.383,35.486,93.383,35.146z M94.566,35.146c0,0.193,0.03,0.374,0.09,0.541
		c0.061,0.168,0.148,0.31,0.266,0.431c0.117,0.12,0.255,0.215,0.416,0.286c0.16,0.069,0.341,0.105,0.541,0.105
		c0.201,0,0.381-0.036,0.542-0.105c0.16-0.071,0.298-0.166,0.416-0.286c0.116-0.12,0.205-0.263,0.266-0.431
		c0.06-0.168,0.09-0.349,0.09-0.541c0-0.194-0.03-0.374-0.09-0.542c-0.061-0.166-0.149-0.311-0.266-0.432
		c-0.118-0.119-0.255-0.215-0.416-0.284c-0.161-0.07-0.341-0.106-0.542-0.106c-0.2,0-0.381,0.036-0.541,0.106
		c-0.16,0.069-0.299,0.165-0.416,0.284c-0.118,0.121-0.206,0.266-0.266,0.432C94.596,34.771,94.566,34.951,94.566,35.146z
		 M95.669,40.197c0-0.308,0.054-0.593,0.161-0.856c0.107-0.265,0.264-0.491,0.471-0.682c0.208-0.191,0.461-0.342,0.762-0.451
		c0.302-0.111,0.645-0.166,1.033-0.166s0.732,0.055,1.032,0.166c0.3,0.109,0.555,0.26,0.762,0.451
		c0.207,0.19,0.365,0.417,0.471,0.682c0.107,0.264,0.16,0.549,0.16,0.856c0,0.309-0.053,0.593-0.16,0.857
		c-0.106,0.263-0.264,0.49-0.471,0.682c-0.207,0.189-0.461,0.34-0.762,0.45c-0.3,0.111-0.644,0.167-1.032,0.167
		s-0.731-0.056-1.033-0.167c-0.3-0.11-0.555-0.261-0.762-0.45c-0.207-0.191-0.364-0.419-0.471-0.682
		C95.722,40.79,95.669,40.506,95.669,40.197z M96.851,40.197c0,0.341,0.111,0.626,0.335,0.857c0.225,0.23,0.527,0.345,0.908,0.345
		c0.38,0,0.683-0.114,0.906-0.345c0.224-0.231,0.336-0.517,0.336-0.857s-0.112-0.627-0.336-0.856
		c-0.224-0.23-0.526-0.347-0.906-0.347c-0.381,0-0.684,0.116-0.908,0.347C96.963,39.57,96.851,39.856,96.851,40.197z M100.62,33.65
		h1.293v0.954h-1.293v1.132h1.293v0.953h-1.293v1.293h-1.183V32.81h1.183V33.65z"/>
	<path fill="#274561" d="M105.723,34.604c0,0.18,0.018,0.345,0.055,0.49c0.037,0.148,0.119,0.29,0.246,0.432
		c0.214,0.233,0.484,0.458,0.812,0.671c0.327,0.215,0.682,0.408,1.062,0.582l-0.501,0.933c-0.441-0.194-0.855-0.421-1.242-0.682
		c-0.388-0.261-0.728-0.553-1.023-0.873c-0.267,0.327-0.608,0.642-1.022,0.942c-0.415,0.301-0.862,0.555-1.343,0.763l-0.521-0.932
		c0.401-0.196,0.781-0.415,1.138-0.663s0.633-0.494,0.827-0.742c0.114-0.146,0.193-0.292,0.241-0.436
		c0.046-0.144,0.07-0.306,0.07-0.486v-1.614h1.203L105.723,34.604L105.723,34.604z M109.893,40.236c0,0.295-0.057,0.568-0.171,0.823
		c-0.113,0.254-0.275,0.477-0.485,0.672c-0.21,0.192-0.467,0.345-0.772,0.455c-0.304,0.111-0.646,0.167-1.027,0.167
		c-0.382,0-0.724-0.056-1.028-0.167c-0.304-0.11-0.562-0.263-0.771-0.455c-0.21-0.195-0.373-0.418-0.486-0.672
		c-0.114-0.255-0.17-0.528-0.17-0.823c0-0.286,0.057-0.559,0.17-0.816s0.275-0.482,0.486-0.677c0.21-0.193,0.467-0.346,0.771-0.456
		c0.304-0.11,0.646-0.165,1.028-0.165c0.381,0,0.723,0.055,1.027,0.165c0.305,0.11,0.562,0.263,0.772,0.456
		c0.21,0.195,0.373,0.419,0.485,0.677C109.836,39.679,109.893,39.95,109.893,40.236z M106.164,40.236
		c0,0.161,0.031,0.313,0.09,0.458c0.061,0.143,0.147,0.267,0.261,0.37c0.114,0.104,0.247,0.185,0.401,0.247
		c0.153,0.06,0.326,0.089,0.521,0.089c0.188,0,0.358-0.029,0.516-0.089c0.157-0.063,0.292-0.143,0.406-0.247
		c0.113-0.104,0.201-0.228,0.26-0.37c0.061-0.145,0.091-0.297,0.091-0.458c0-0.159-0.03-0.312-0.091-0.456
		c-0.06-0.145-0.147-0.267-0.26-0.37c-0.114-0.104-0.249-0.186-0.406-0.246c-0.157-0.062-0.328-0.09-0.516-0.09
		c-0.195,0-0.368,0.028-0.521,0.09c-0.154,0.061-0.288,0.143-0.401,0.246c-0.114,0.104-0.201,0.226-0.261,0.37
		S106.164,40.077,106.164,40.236z M107.055,34.354h1.755V32.81h1.183v5.252h-1.183v-2.755h-1.755V34.354z"/>
	<path fill="#274561" d="M114.553,35.004c0,0.208,0.017,0.412,0.05,0.613c0.034,0.199,0.093,0.386,0.18,0.561
		c0.195,0.401,0.466,0.822,0.818,1.264c0.352,0.44,0.729,0.861,1.138,1.263l-0.813,0.792c-0.401-0.388-0.771-0.8-1.112-1.238
		c-0.341-0.437-0.625-0.855-0.852-1.258c-0.221,0.414-0.508,0.849-0.862,1.303c-0.354,0.455-0.751,0.886-1.193,1.293l-0.822-0.791
		c0.46-0.435,0.868-0.879,1.218-1.334c0.351-0.454,0.623-0.885,0.816-1.293c0.087-0.175,0.147-0.361,0.181-0.561
		c0.034-0.201,0.05-0.405,0.05-0.613V33.03h1.203V35.004L114.553,35.004z M118.614,35.536h1.343v0.952h-1.343v4.992h-1.183V32.81
		h1.183V35.536z"/>
	<path fill="#274561" d="M120.598,35.135c0-0.341,0.059-0.652,0.176-0.937c0.117-0.284,0.284-0.528,0.5-0.731
		c0.218-0.205,0.48-0.361,0.787-0.473c0.308-0.109,0.652-0.165,1.033-0.165c0.667,0,1.215,0.164,1.645,0.491
		c0.427,0.327,0.694,0.766,0.801,1.313h1.314V32.81h1.183v4.83h-1.183v-2.054h-1.303c-0.047,0.279-0.139,0.535-0.275,0.763
		c-0.137,0.227-0.311,0.422-0.521,0.586s-0.456,0.289-0.737,0.376c-0.281,0.088-0.588,0.131-0.922,0.131
		c-0.38,0-0.725-0.057-1.033-0.167c-0.307-0.109-0.569-0.267-0.787-0.471c-0.216-0.203-0.384-0.446-0.5-0.732
		C120.656,35.789,120.598,35.476,120.598,35.135z M121.78,35.135c0,0.194,0.031,0.373,0.092,0.537
		c0.06,0.163,0.147,0.307,0.265,0.426c0.116,0.12,0.256,0.216,0.416,0.285c0.161,0.071,0.34,0.105,0.54,0.105
		c0.201,0,0.381-0.034,0.542-0.105c0.161-0.069,0.299-0.165,0.415-0.285c0.119-0.119,0.206-0.262,0.267-0.426
		c0.06-0.164,0.089-0.343,0.089-0.537c0-0.192-0.029-0.372-0.089-0.535c-0.062-0.164-0.148-0.306-0.267-0.428
		c-0.116-0.119-0.254-0.215-0.415-0.284c-0.161-0.07-0.341-0.106-0.542-0.106c-0.2,0-0.379,0.036-0.54,0.106
		c-0.16,0.069-0.3,0.165-0.416,0.284c-0.118,0.121-0.206,0.264-0.265,0.428C121.811,34.763,121.78,34.942,121.78,35.135z
		 M124.988,42.071c-0.253,0-0.526-0.004-0.816-0.01c-0.291-0.007-0.576-0.014-0.857-0.024c-0.28-0.012-0.544-0.024-0.792-0.041
		c-0.248-0.016-0.451-0.034-0.612-0.055v-3.799h1.183v0.973h3.759v-0.973h1.184v3.789c-0.161,0.02-0.363,0.039-0.607,0.057
		c-0.245,0.015-0.505,0.03-0.782,0.043c-0.276,0.014-0.56,0.023-0.847,0.03S125.243,42.071,124.988,42.071z M123.093,41.089
		c0.329,0.014,0.656,0.022,0.983,0.025c0.327,0.004,0.632,0.005,0.912,0.005c0.274,0,0.574-0.001,0.898-0.005
		c0.323-0.003,0.646-0.012,0.966-0.025v-1.021h-3.759V41.089L123.093,41.089z"/>
	<path fill="#274561" d="M129.169,33.03c0.18,0.033,0.382,0.059,0.605,0.075c0.224,0.017,0.426,0.024,0.608,0.024h3.759v0.953
		h-3.159v2.696h3.408v0.952H129.8v-3.689c-0.3-0.052-0.567-0.13-0.802-0.229L129.169,33.03z M136.907,41.852
		c-0.181,0.026-0.394,0.05-0.641,0.068c-0.247,0.021-0.508,0.038-0.782,0.051c-0.273,0.013-0.556,0.022-0.842,0.03
		c-0.288,0.007-0.562,0.011-0.823,0.011c-0.274,0-0.552-0.004-0.831-0.011c-0.282-0.008-0.557-0.016-0.823-0.03
		s-0.525-0.028-0.772-0.045c-0.248-0.016-0.471-0.038-0.671-0.065v-3.027h1.204v2.145c0.12,0.014,0.267,0.026,0.44,0.037
		c0.173,0.01,0.361,0.018,0.562,0.024c0.201,0.007,0.408,0.012,0.626,0.015s0.426,0.005,0.626,0.005c0.221,0,0.454-0.004,0.697-0.01
		c0.243-0.007,0.488-0.016,0.731-0.025c0.244-0.011,0.478-0.022,0.702-0.035c0.223-0.014,0.422-0.026,0.596-0.039L136.907,41.852
		L136.907,41.852z M136.606,34.874H138v0.953h-1.395v3.459h-1.182V32.81h1.182V34.874z"/>
</g>
</svg>
